<mxfile host="app.diagrams.net" modified="2024-06-10T15:16:32.414Z" agent="Mozilla/5.0 (Windows NT 10.0; Win64; x64) AppleWebKit/537.36 (KHTML, like Gecko) Chrome/125.0.0.0 Safari/537.36" etag="nV0vHzrAK85qp7UWx8Vb" version="24.5.2" type="device">
  <diagram name="Страница — 1" id="Thi9hPM8hP3XWCTX5rDp">
    <mxGraphModel dx="1238" dy="650" grid="1" gridSize="10" guides="1" tooltips="1" connect="1" arrows="1" fold="1" page="1" pageScale="1" pageWidth="827" pageHeight="1169" math="0" shadow="0">
      <root>
        <mxCell id="0" />
        <mxCell id="1" parent="0" />
        <mxCell id="TAfKT55fyafpBSRyJVl7-1" value="" style="rounded=1;whiteSpace=wrap;html=1;" vertex="1" parent="1">
          <mxGeometry x="45" y="10" width="470" height="300" as="geometry" />
        </mxCell>
        <mxCell id="TAfKT55fyafpBSRyJVl7-2" value="ExcelFile" style="text;html=1;align=center;verticalAlign=middle;whiteSpace=wrap;rounded=0;" vertex="1" parent="1">
          <mxGeometry x="250" y="30" width="60" height="30" as="geometry" />
        </mxCell>
        <mxCell id="TAfKT55fyafpBSRyJVl7-3" value="" style="rounded=1;whiteSpace=wrap;html=1;" vertex="1" parent="1">
          <mxGeometry x="80" y="65" width="180" height="140" as="geometry" />
        </mxCell>
        <mxCell id="TAfKT55fyafpBSRyJVl7-4" value="Вкладка&lt;br&gt;Questionnaire" style="text;html=1;align=center;verticalAlign=middle;whiteSpace=wrap;rounded=0;" vertex="1" parent="1">
          <mxGeometry x="140" y="175" width="60" height="30" as="geometry" />
        </mxCell>
        <mxCell id="TAfKT55fyafpBSRyJVl7-5" value="Name" style="text;html=1;align=center;verticalAlign=middle;whiteSpace=wrap;rounded=0;" vertex="1" parent="1">
          <mxGeometry x="100" y="75" width="50" height="30" as="geometry" />
        </mxCell>
        <mxCell id="TAfKT55fyafpBSRyJVl7-6" value="CustonType" style="text;html=1;align=center;verticalAlign=middle;whiteSpace=wrap;rounded=0;" vertex="1" parent="1">
          <mxGeometry x="180" y="75" width="60" height="30" as="geometry" />
        </mxCell>
        <mxCell id="TAfKT55fyafpBSRyJVl7-9" value="value" style="rounded=1;whiteSpace=wrap;html=1;" vertex="1" parent="1">
          <mxGeometry x="90" y="105" width="70" height="40" as="geometry" />
        </mxCell>
        <mxCell id="TAfKT55fyafpBSRyJVl7-10" value="value" style="rounded=1;whiteSpace=wrap;html=1;" vertex="1" parent="1">
          <mxGeometry x="170" y="105" width="80" height="40" as="geometry" />
        </mxCell>
        <mxCell id="TAfKT55fyafpBSRyJVl7-12" value="" style="rounded=1;whiteSpace=wrap;html=1;" vertex="1" parent="1">
          <mxGeometry x="300" y="65" width="180" height="140" as="geometry" />
        </mxCell>
        <mxCell id="TAfKT55fyafpBSRyJVl7-13" value="Вкладка&lt;br&gt;Question" style="text;html=1;align=center;verticalAlign=middle;whiteSpace=wrap;rounded=0;" vertex="1" parent="1">
          <mxGeometry x="360" y="175" width="60" height="30" as="geometry" />
        </mxCell>
        <mxCell id="TAfKT55fyafpBSRyJVl7-14" value="Name" style="text;html=1;align=center;verticalAlign=middle;whiteSpace=wrap;rounded=0;" vertex="1" parent="1">
          <mxGeometry x="320" y="75" width="50" height="30" as="geometry" />
        </mxCell>
        <mxCell id="TAfKT55fyafpBSRyJVl7-15" value="QuestionType" style="text;html=1;align=center;verticalAlign=middle;whiteSpace=wrap;rounded=0;" vertex="1" parent="1">
          <mxGeometry x="400" y="75" width="60" height="30" as="geometry" />
        </mxCell>
        <mxCell id="TAfKT55fyafpBSRyJVl7-16" value="value" style="rounded=1;whiteSpace=wrap;html=1;" vertex="1" parent="1">
          <mxGeometry x="310" y="105" width="70" height="40" as="geometry" />
        </mxCell>
        <mxCell id="TAfKT55fyafpBSRyJVl7-17" value="value" style="rounded=1;whiteSpace=wrap;html=1;" vertex="1" parent="1">
          <mxGeometry x="390" y="105" width="80" height="40" as="geometry" />
        </mxCell>
        <mxCell id="TAfKT55fyafpBSRyJVl7-18" value="" style="rounded=1;whiteSpace=wrap;html=1;" vertex="1" parent="1">
          <mxGeometry x="340" y="770" width="450" height="370" as="geometry" />
        </mxCell>
        <mxCell id="TAfKT55fyafpBSRyJVl7-19" value="Program" style="text;html=1;align=center;verticalAlign=middle;whiteSpace=wrap;rounded=0;" vertex="1" parent="1">
          <mxGeometry x="550" y="770" width="60" height="30" as="geometry" />
        </mxCell>
        <mxCell id="TAfKT55fyafpBSRyJVl7-23" value="1. Считывает excel_file&lt;div&gt;2. Сохраняет значения&lt;/div&gt;&lt;div&gt;3. Выводит в консоль&lt;/div&gt;" style="rounded=1;whiteSpace=wrap;html=1;" vertex="1" parent="1">
          <mxGeometry x="370" y="800" width="380" height="150" as="geometry" />
        </mxCell>
        <mxCell id="TAfKT55fyafpBSRyJVl7-20" value="&lt;b&gt;ExcelReader&lt;/b&gt;" style="text;html=1;align=center;verticalAlign=middle;whiteSpace=wrap;rounded=0;" vertex="1" parent="1">
          <mxGeometry x="380" y="800" width="230" height="50" as="geometry" />
        </mxCell>
        <mxCell id="TAfKT55fyafpBSRyJVl7-24" value="1. Считывает excel_file&lt;div&gt;2. Сохраняет значение QuestionnaireName&lt;/div&gt;&lt;div&gt;3. Выводит в консоль&lt;/div&gt;" style="rounded=1;whiteSpace=wrap;html=1;" vertex="1" parent="1">
          <mxGeometry x="370" y="970" width="380" height="150" as="geometry" />
        </mxCell>
        <mxCell id="TAfKT55fyafpBSRyJVl7-21" value="DataBaseHandlerQuestionnaireNameClass" style="text;html=1;align=center;verticalAlign=middle;whiteSpace=wrap;rounded=0;" vertex="1" parent="1">
          <mxGeometry x="390" y="980" width="250" height="40" as="geometry" />
        </mxCell>
        <mxCell id="TAfKT55fyafpBSRyJVl7-25" value="1. Прочитать файл - self.df - сохранил&lt;div&gt;2. Записать в промежуточный файл&lt;br&gt;3. Отдать self.df (в консоль)&lt;/div&gt;" style="text;html=1;align=center;verticalAlign=middle;whiteSpace=wrap;rounded=0;" vertex="1" parent="1">
          <mxGeometry x="100" y="250" width="340" height="40" as="geometry" />
        </mxCell>
        <mxCell id="TAfKT55fyafpBSRyJVl7-26" value="&lt;b&gt;Параметризуются вкладками/колонками/строками&lt;/b&gt;" style="text;html=1;align=center;verticalAlign=middle;whiteSpace=wrap;rounded=0;" vertex="1" parent="1">
          <mxGeometry x="130" y="220" width="310" height="30" as="geometry" />
        </mxCell>
        <mxCell id="TAfKT55fyafpBSRyJVl7-27" value="query: select/insert/update&lt;br&gt;&lt;br&gt;Передаются параметры - @parametrs&lt;br&gt;&lt;br&gt;Если на входе несколько parametrs - размножить query" style="rounded=1;whiteSpace=wrap;html=1;" vertex="1" parent="1">
          <mxGeometry x="50" y="340" width="470" height="300" as="geometry" />
        </mxCell>
        <mxCell id="TAfKT55fyafpBSRyJVl7-28" value="DBQuery" style="text;html=1;align=center;verticalAlign=middle;whiteSpace=wrap;rounded=0;" vertex="1" parent="1">
          <mxGeometry x="250" y="350" width="60" height="30" as="geometry" />
        </mxCell>
      </root>
    </mxGraphModel>
  </diagram>
</mxfile>
